<?xml version="1.0" encoding="UTF-8" standalone="no"?>
<!DOCTYPE svg PUBLIC "-//W3C//DTD SVG 1.1//EN"
 "http://www.w3.org/Graphics/SVG/1.1/DTD/svg11.dtd">
<!-- Generated by graphviz version 13.1.0 (20250701.0955)
 -->
<!-- Title: ch9120_basic_config Pages: 1 -->
<svg width="282pt" height="772pt"
 viewBox="0.00 0.00 282.00 772.00" xmlns="http://www.w3.org/2000/svg" xmlns:xlink="http://www.w3.org/1999/xlink">
<g id="graph0" class="graph" transform="scale(1 1) rotate(0) translate(4 768)">
<title>ch9120_basic_config</title>
<!-- Node1 -->
<g id="Node000001" class="node">
<title>Node1</title>
<g id="a_Node000001"><a xlink:title="basic example config">
<polygon fill="#999999" stroke="#666666" points="107.5,-398 0,-398 0,-378 107.5,-378 107.5,-398"/>
<text xml:space="preserve" text-anchor="middle" x="53.75" y="-384.5" font-family="Helvetica,sans-Serif" font-size="10.00">ch9120_basic_config</text>
</a>
</g>
</g>
<!-- Node2 -->
<g id="Node000002" class="node">
<title>Node2</title>
<g id="a_Node000002"><a xlink:href="group__ch9120__base__driver.html#gaab983d6b8a15a98c88cf0b24a8d7e549" target="_top" xlink:title="config and reset the chip">
<polygon fill="white" stroke="#666666" points="272,-764 145,-764 145,-744 272,-744 272,-764"/>
<text xml:space="preserve" text-anchor="middle" x="208.5" y="-750.5" font-family="Helvetica,sans-Serif" font-size="10.00">ch9120_config_and_reset</text>
</a>
</g>
</g>
<!-- Node1&#45;&gt;Node2 -->
<g id="edge1_Node000001_Node000002" class="edge">
<title>Node1&#45;&gt;Node2</title>
<g id="a_edge1_Node000001_Node000002"><a xlink:title=" ">
<path fill="none" stroke="#63b8ff" d="M56.02,-398.39C62.63,-450.64 94.56,-684.15 143.5,-735 144.22,-735.75 144.97,-736.47 145.74,-737.16"/>
<polygon fill="#63b8ff" stroke="#63b8ff" points="143.43,-739.82 153.63,-742.68 147.45,-734.08 143.43,-739.82"/>
</a>
</g>
</g>
<!-- Node3 -->
<g id="Node000003" class="node">
<title>Node3</title>
<g id="a_Node000003"><a xlink:href="group__ch9120__interface__driver.html#gad15faa46beec60b66124500c01982642" target="_top" xlink:title="interface print format data">
<polygon fill="white" stroke="#666666" points="269.38,-726 147.62,-726 147.62,-694 269.38,-694 269.38,-726"/>
<text xml:space="preserve" text-anchor="start" x="155.62" y="-712.5" font-family="Helvetica,sans-Serif" font-size="10.00">ch9120_interface_debug</text>
<text xml:space="preserve" text-anchor="middle" x="208.5" y="-700.5" font-family="Helvetica,sans-Serif" font-size="10.00">_print</text>
</a>
</g>
</g>
<!-- Node1&#45;&gt;Node3 -->
<g id="edge2_Node000001_Node000003" class="edge">
<title>Node1&#45;&gt;Node3</title>
<g id="a_edge2_Node000001_Node000003"><a xlink:title=" ">
<path fill="none" stroke="#63b8ff" d="M54.75,-398.23C55.33,-439.74 62.92,-597.53 143.5,-685 143.97,-685.51 144.45,-686 144.94,-686.49"/>
<polygon fill="#63b8ff" stroke="#63b8ff" points="142.53,-689.05 152.51,-692.59 146.92,-683.59 142.53,-689.05"/>
</a>
</g>
</g>
<!-- Node4 -->
<g id="Node000004" class="node">
<title>Node4</title>
<g id="a_Node000004"><a xlink:href="group__ch9120__base__driver.html#gae4d6d8549778e1d2cca88b3184033c46" target="_top" xlink:title="save to eeprom">
<polygon fill="white" stroke="#666666" points="270.88,-676 146.12,-676 146.12,-656 270.88,-656 270.88,-676"/>
<text xml:space="preserve" text-anchor="middle" x="208.5" y="-662.5" font-family="Helvetica,sans-Serif" font-size="10.00">ch9120_save_to_eeprom</text>
</a>
</g>
</g>
<!-- Node1&#45;&gt;Node4 -->
<g id="edge3_Node000001_Node000004" class="edge">
<title>Node1&#45;&gt;Node4</title>
<g id="a_edge3_Node000001_Node000004"><a xlink:title=" ">
<path fill="none" stroke="#63b8ff" d="M55.08,-398.42C56.89,-437.26 68.55,-575.1 143.5,-647 144.4,-647.86 145.34,-648.69 146.3,-649.47"/>
<polygon fill="#63b8ff" stroke="#63b8ff" points="144.21,-652.29 154.51,-654.77 148.01,-646.41 144.21,-652.29"/>
</a>
</g>
</g>
<!-- Node5 -->
<g id="Node000005" class="node">
<title>Node5</title>
<g id="a_Node000005"><a xlink:href="group__ch9120__base__driver.html#ga0ea13f2029c52768a4d8f40dc83a9fb6" target="_top" xlink:title="set dest ip">
<polygon fill="white" stroke="#666666" points="260,-638 157,-638 157,-618 260,-618 260,-638"/>
<text xml:space="preserve" text-anchor="middle" x="208.5" y="-624.5" font-family="Helvetica,sans-Serif" font-size="10.00">ch9120_set_dest_ip</text>
</a>
</g>
</g>
<!-- Node1&#45;&gt;Node5 -->
<g id="edge4_Node000001_Node000005" class="edge">
<title>Node1&#45;&gt;Node5</title>
<g id="a_edge4_Node000001_Node000005"><a xlink:title=" ">
<path fill="none" stroke="#63b8ff" d="M55.74,-398.1C59.68,-432.87 77.47,-548.86 143.5,-609 144.58,-609.99 145.72,-610.92 146.89,-611.81"/>
<polygon fill="#63b8ff" stroke="#63b8ff" points="144.94,-614.72 155.3,-616.93 148.58,-608.74 144.94,-614.72"/>
</a>
</g>
</g>
<!-- Node6 -->
<g id="Node000006" class="node">
<title>Node6</title>
<g id="a_Node000006"><a xlink:href="group__ch9120__base__driver.html#ga8a0d6431e4834b1e133072d2733cb5ef" target="_top" xlink:title="set dest port">
<polygon fill="white" stroke="#666666" points="264.5,-600 152.5,-600 152.5,-580 264.5,-580 264.5,-600"/>
<text xml:space="preserve" text-anchor="middle" x="208.5" y="-586.5" font-family="Helvetica,sans-Serif" font-size="10.00">ch9120_set_dest_port</text>
</a>
</g>
</g>
<!-- Node1&#45;&gt;Node6 -->
<g id="edge5_Node000001_Node000006" class="edge">
<title>Node1&#45;&gt;Node6</title>
<g id="a_edge5_Node000001_Node000006"><a xlink:title=" ">
<path fill="none" stroke="#63b8ff" d="M56.66,-398.07C63.02,-428.85 86.44,-522.55 143.5,-571 144.77,-572.08 146.1,-573.1 147.48,-574.05"/>
<polygon fill="#63b8ff" stroke="#63b8ff" points="145.43,-576.91 155.85,-578.84 148.9,-570.84 145.43,-576.91"/>
</a>
</g>
</g>
<!-- Node7 -->
<g id="Node000007" class="node">
<title>Node7</title>
<g id="a_Node000007"><a xlink:href="group__ch9120__base__driver.html#gae33ca659c909727295ff7a708890941d" target="_top" xlink:title="enable or disable dhcp">
<polygon fill="white" stroke="#666666" points="254.75,-562 162.25,-562 162.25,-542 254.75,-542 254.75,-562"/>
<text xml:space="preserve" text-anchor="middle" x="208.5" y="-548.5" font-family="Helvetica,sans-Serif" font-size="10.00">ch9120_set_dhcp</text>
</a>
</g>
</g>
<!-- Node1&#45;&gt;Node7 -->
<g id="edge6_Node000001_Node000007" class="edge">
<title>Node1&#45;&gt;Node7</title>
<g id="a_edge6_Node000001_Node000007"><a xlink:title=" ">
<path fill="none" stroke="#63b8ff" d="M58.07,-398.19C67.2,-424.64 95.29,-495.96 143.5,-533 145.96,-534.89 148.6,-536.59 151.36,-538.12"/>
<polygon fill="#63b8ff" stroke="#63b8ff" points="149.85,-541.28 160.39,-542.32 152.8,-534.93 149.85,-541.28"/>
</a>
</g>
</g>
<!-- Node8 -->
<g id="Node000008" class="node">
<title>Node8</title>
<g id="a_Node000008"><a xlink:href="group__ch9120__base__driver.html#gaca84d46439eb2709360d629c08dc6b3d" target="_top" xlink:title="enable or disable disconnect with no rj45">
<polygon fill="white" stroke="#666666" points="267.88,-524 149.12,-524 149.12,-492 267.88,-492 267.88,-524"/>
<text xml:space="preserve" text-anchor="start" x="157.12" y="-510.5" font-family="Helvetica,sans-Serif" font-size="10.00">ch9120_set_disconnect</text>
<text xml:space="preserve" text-anchor="middle" x="208.5" y="-498.5" font-family="Helvetica,sans-Serif" font-size="10.00">_with_no_rj45</text>
</a>
</g>
</g>
<!-- Node1&#45;&gt;Node8 -->
<g id="edge7_Node000001_Node000008" class="edge">
<title>Node1&#45;&gt;Node8</title>
<g id="a_edge7_Node000001_Node000008"><a xlink:title=" ">
<path fill="none" stroke="#63b8ff" d="M61.89,-398.28C75.64,-417.4 107.63,-458.68 143.5,-483 145.1,-484.08 146.74,-485.13 148.43,-486.13"/>
<polygon fill="#63b8ff" stroke="#63b8ff" points="146.66,-489.15 157.12,-490.8 149.97,-482.98 146.66,-489.15"/>
</a>
</g>
</g>
<!-- Node9 -->
<g id="Node000009" class="node">
<title>Node9</title>
<g id="a_Node000009"><a xlink:href="group__ch9120__base__driver.html#gaaabfdc60ae6973a5592a42addb7f0f8a" target="_top" xlink:title="set gateway">
<polygon fill="white" stroke="#666666" points="262.62,-474 154.38,-474 154.38,-454 262.62,-454 262.62,-474"/>
<text xml:space="preserve" text-anchor="middle" x="208.5" y="-460.5" font-family="Helvetica,sans-Serif" font-size="10.00">ch9120_set_gateway</text>
</a>
</g>
</g>
<!-- Node1&#45;&gt;Node9 -->
<g id="edge8_Node000001_Node000009" class="edge">
<title>Node1&#45;&gt;Node9</title>
<g id="a_edge8_Node000001_Node000009"><a xlink:title=" ">
<path fill="none" stroke="#63b8ff" d="M68.19,-398.36C85,-410.9 115.03,-431.95 143.5,-445 147.25,-446.72 151.2,-448.33 155.21,-449.82"/>
<polygon fill="#63b8ff" stroke="#63b8ff" points="153.87,-453.06 164.47,-453.02 156.16,-446.45 153.87,-453.06"/>
</a>
</g>
</g>
<!-- Node10 -->
<g id="Node000010" class="node">
<title>Node10</title>
<g id="a_Node000010"><a xlink:href="group__ch9120__base__driver.html#gaf28d48aa3ea3b5e10be5950b41c35b58" target="_top" xlink:title="set ip address">
<polygon fill="white" stroke="#666666" points="248,-436 169,-436 169,-416 248,-416 248,-436"/>
<text xml:space="preserve" text-anchor="middle" x="208.5" y="-422.5" font-family="Helvetica,sans-Serif" font-size="10.00">ch9120_set_ip</text>
</a>
</g>
</g>
<!-- Node1&#45;&gt;Node10 -->
<g id="edge9_Node000001_Node000010" class="edge">
<title>Node1&#45;&gt;Node10</title>
<g id="a_edge9_Node000001_Node000010"><a xlink:title=" ">
<path fill="none" stroke="#63b8ff" d="M96.89,-398.48C115.73,-403.17 138.07,-408.73 157.73,-413.62"/>
<polygon fill="#63b8ff" stroke="#63b8ff" points="156.62,-416.95 167.17,-415.97 158.31,-410.16 156.62,-416.95"/>
</a>
</g>
</g>
<!-- Node11 -->
<g id="Node000011" class="node">
<title>Node11</title>
<g id="a_Node000011"><a xlink:href="group__ch9120__base__driver.html#gacef65c233257a239946ab66e94f3eceb" target="_top" xlink:title="set mode">
<polygon fill="white" stroke="#666666" points="256.25,-398 160.75,-398 160.75,-378 256.25,-378 256.25,-398"/>
<text xml:space="preserve" text-anchor="middle" x="208.5" y="-384.5" font-family="Helvetica,sans-Serif" font-size="10.00">ch9120_set_mode</text>
</a>
</g>
</g>
<!-- Node1&#45;&gt;Node11 -->
<g id="edge10_Node000001_Node000011" class="edge">
<title>Node1&#45;&gt;Node11</title>
<g id="a_edge10_Node000001_Node000011"><a xlink:title=" ">
<path fill="none" stroke="#63b8ff" d="M107.75,-388C121.14,-388 135.6,-388 149.24,-388"/>
<polygon fill="#63b8ff" stroke="#63b8ff" points="148.95,-391.5 158.95,-388 148.95,-384.5 148.95,-391.5"/>
</a>
</g>
</g>
<!-- Node12 -->
<g id="Node000012" class="node">
<title>Node12</title>
<g id="a_Node000012"><a xlink:href="group__ch9120__base__driver.html#gaf7335ad4726c9d4ac7011f9a42e696f7" target="_top" xlink:title="set source port">
<polygon fill="white" stroke="#666666" points="269.75,-360 147.25,-360 147.25,-340 269.75,-340 269.75,-360"/>
<text xml:space="preserve" text-anchor="middle" x="208.5" y="-346.5" font-family="Helvetica,sans-Serif" font-size="10.00">ch9120_set_source_port</text>
</a>
</g>
</g>
<!-- Node1&#45;&gt;Node12 -->
<g id="edge11_Node000001_Node000012" class="edge">
<title>Node1&#45;&gt;Node12</title>
<g id="a_edge11_Node000001_Node000012"><a xlink:title=" ">
<path fill="none" stroke="#63b8ff" d="M96.89,-377.52C114.67,-373.09 135.58,-367.89 154.39,-363.21"/>
<polygon fill="#63b8ff" stroke="#63b8ff" points="155.17,-366.63 164.02,-360.82 153.48,-359.83 155.17,-366.63"/>
</a>
</g>
</g>
<!-- Node13 -->
<g id="Node000013" class="node">
<title>Node13</title>
<g id="a_Node000013"><a xlink:href="group__ch9120__base__driver.html#ga8dca46750edc6f12b1888954768c3640" target="_top" xlink:title="enable or disable random source port number">
<polygon fill="white" stroke="#666666" points="269.75,-322 147.25,-322 147.25,-290 269.75,-290 269.75,-322"/>
<text xml:space="preserve" text-anchor="start" x="155.25" y="-308.5" font-family="Helvetica,sans-Serif" font-size="10.00">ch9120_set_source_port</text>
<text xml:space="preserve" text-anchor="middle" x="208.5" y="-296.5" font-family="Helvetica,sans-Serif" font-size="10.00">_random</text>
</a>
</g>
</g>
<!-- Node1&#45;&gt;Node13 -->
<g id="edge12_Node000001_Node000013" class="edge">
<title>Node1&#45;&gt;Node13</title>
<g id="a_edge12_Node000001_Node000013"><a xlink:title=" ">
<path fill="none" stroke="#63b8ff" d="M68.98,-377.6C86.08,-365.4 115.93,-345.06 143.5,-331 146.2,-329.62 148.99,-328.28 151.83,-326.96"/>
<polygon fill="#63b8ff" stroke="#63b8ff" points="153.12,-330.22 160.86,-322.99 150.3,-323.81 153.12,-330.22"/>
</a>
</g>
</g>
<!-- Node14 -->
<g id="Node000014" class="node">
<title>Node14</title>
<g id="a_Node000014"><a xlink:href="group__ch9120__base__driver.html#gae7dba1a46107199fd6b0de415e5c77c9" target="_top" xlink:title="set subnet mask">
<polygon fill="white" stroke="#666666" points="273.5,-272 143.5,-272 143.5,-252 273.5,-252 273.5,-272"/>
<text xml:space="preserve" text-anchor="middle" x="208.5" y="-258.5" font-family="Helvetica,sans-Serif" font-size="10.00">ch9120_set_subnet_mask</text>
</a>
</g>
</g>
<!-- Node1&#45;&gt;Node14 -->
<g id="edge13_Node000001_Node000014" class="edge">
<title>Node1&#45;&gt;Node14</title>
<g id="a_edge13_Node000001_Node000014"><a xlink:title=" ">
<path fill="none" stroke="#63b8ff" d="M60.4,-377.74C72.65,-356.44 103.82,-307.19 143.5,-281 145.62,-279.6 147.85,-278.3 150.15,-277.09"/>
<polygon fill="#63b8ff" stroke="#63b8ff" points="151.54,-280.3 159.22,-273 148.66,-273.92 151.54,-280.3"/>
</a>
</g>
</g>
<!-- Node15 -->
<g id="Node000015" class="node">
<title>Node15</title>
<g id="a_Node000015"><a xlink:href="group__ch9120__base__driver.html#ga006d473e120878dd40c5eb957ac5c9f0" target="_top" xlink:title="set uart baud">
<polygon fill="white" stroke="#666666" points="265.62,-234 151.38,-234 151.38,-214 265.62,-214 265.62,-234"/>
<text xml:space="preserve" text-anchor="middle" x="208.5" y="-220.5" font-family="Helvetica,sans-Serif" font-size="10.00">ch9120_set_uart_baud</text>
</a>
</g>
</g>
<!-- Node1&#45;&gt;Node15 -->
<g id="edge14_Node000001_Node000015" class="edge">
<title>Node1&#45;&gt;Node15</title>
<g id="a_edge14_Node000001_Node000015"><a xlink:title=" ">
<path fill="none" stroke="#63b8ff" d="M58.07,-377.81C67.2,-351.36 95.29,-280.04 143.5,-243 145.05,-241.81 146.67,-240.7 148.35,-239.65"/>
<polygon fill="#63b8ff" stroke="#63b8ff" points="149.87,-242.81 157.13,-235.09 146.64,-236.59 149.87,-242.81"/>
</a>
</g>
</g>
<!-- Node16 -->
<g id="Node000016" class="node">
<title>Node16</title>
<g id="a_Node000016"><a xlink:href="group__ch9120__base__driver.html#ga9138120f1f08abc60273a78c1ec8bf6e" target="_top" xlink:title="set uart buffer length">
<polygon fill="white" stroke="#666666" points="267.12,-196 149.88,-196 149.88,-164 267.12,-164 267.12,-196"/>
<text xml:space="preserve" text-anchor="start" x="157.88" y="-182.5" font-family="Helvetica,sans-Serif" font-size="10.00">ch9120_set_uart_buffer</text>
<text xml:space="preserve" text-anchor="middle" x="208.5" y="-170.5" font-family="Helvetica,sans-Serif" font-size="10.00">_length</text>
</a>
</g>
</g>
<!-- Node1&#45;&gt;Node16 -->
<g id="edge15_Node000001_Node000016" class="edge">
<title>Node1&#45;&gt;Node16</title>
<g id="a_edge15_Node000001_Node000016"><a xlink:title=" ">
<path fill="none" stroke="#63b8ff" d="M56.94,-377.71C63.97,-347.09 88.77,-255.56 143.5,-205 144.27,-204.29 145.06,-203.6 145.86,-202.93"/>
<polygon fill="#63b8ff" stroke="#63b8ff" points="147.73,-205.9 153.94,-197.31 143.74,-200.15 147.73,-205.9"/>
</a>
</g>
</g>
<!-- Node17 -->
<g id="Node000017" class="node">
<title>Node17</title>
<g id="a_Node000017"><a xlink:href="group__ch9120__base__driver.html#ga9038eea413829658e8e8899213eb470d" target="_top" xlink:title="set uart config">
<polygon fill="white" stroke="#666666" points="268.25,-146 148.75,-146 148.75,-126 268.25,-126 268.25,-146"/>
<text xml:space="preserve" text-anchor="middle" x="208.5" y="-132.5" font-family="Helvetica,sans-Serif" font-size="10.00">ch9120_set_uart_config</text>
</a>
</g>
</g>
<!-- Node1&#45;&gt;Node17 -->
<g id="edge16_Node000001_Node000017" class="edge">
<title>Node1&#45;&gt;Node17</title>
<g id="a_edge16_Node000001_Node000017"><a xlink:title=" ">
<path fill="none" stroke="#63b8ff" d="M55.51,-377.87C58.75,-341.88 74.63,-218.87 143.5,-155 144.55,-154.02 145.65,-153.1 146.79,-152.22"/>
<polygon fill="#63b8ff" stroke="#63b8ff" points="148.28,-155.42 154.93,-147.17 144.59,-149.47 148.28,-155.42"/>
</a>
</g>
</g>
<!-- Node18 -->
<g id="Node000018" class="node">
<title>Node18</title>
<g id="a_Node000018"><a xlink:href="group__ch9120__base__driver.html#ga968ea3b86d1dff71b6ac31f3ad05808e" target="_top" xlink:title="enable or disable uart auto flush">
<polygon fill="white" stroke="#666666" points="265.62,-108 151.38,-108 151.38,-88 265.62,-88 265.62,-108"/>
<text xml:space="preserve" text-anchor="middle" x="208.5" y="-94.5" font-family="Helvetica,sans-Serif" font-size="10.00">ch9120_set_uart_flush</text>
</a>
</g>
</g>
<!-- Node1&#45;&gt;Node18 -->
<g id="edge17_Node000001_Node000018" class="edge">
<title>Node1&#45;&gt;Node18</title>
<g id="a_edge17_Node000001_Node000018"><a xlink:title=" ">
<path fill="none" stroke="#63b8ff" d="M54.9,-377.66C56.04,-337.84 65.6,-192.76 143.5,-117 144.39,-116.13 145.32,-115.3 146.29,-114.51"/>
<polygon fill="#63b8ff" stroke="#63b8ff" points="148,-117.58 154.46,-109.18 144.17,-111.71 148,-117.58"/>
</a>
</g>
</g>
<!-- Node19 -->
<g id="Node000019" class="node">
<title>Node19</title>
<g id="a_Node000019"><a xlink:href="group__ch9120__base__driver.html#gab53537ca42a52562ae77fb1ab5c6448d" target="_top" xlink:title="set uart timeout">
<polygon fill="white" stroke="#666666" points="271.25,-70 145.75,-70 145.75,-50 271.25,-50 271.25,-70"/>
<text xml:space="preserve" text-anchor="middle" x="208.5" y="-56.5" font-family="Helvetica,sans-Serif" font-size="10.00">ch9120_set_uart_timeout</text>
</a>
</g>
</g>
<!-- Node1&#45;&gt;Node19 -->
<g id="edge18_Node000001_Node000019" class="edge">
<title>Node1&#45;&gt;Node19</title>
<g id="a_edge18_Node000001_Node000019"><a xlink:title=" ">
<path fill="none" stroke="#63b8ff" d="M54.41,-377.75C53.59,-334.75 56.27,-167.01 143.5,-79 144.25,-78.24 145.03,-77.52 145.83,-76.82"/>
<polygon fill="#63b8ff" stroke="#63b8ff" points="147.74,-79.76 154.04,-71.24 143.8,-73.97 147.74,-79.76"/>
</a>
</g>
</g>
<!-- Node20 -->
<g id="Node000020" class="node">
<title>Node20</title>
<g id="a_Node000020"><a xlink:href="group__ch9120__base__driver.html#gadbd458835aed0ddc8edcd01452b464c2" target="_top" xlink:title="convert the uart timeout to the register raw data">
<polygon fill="white" stroke="#666666" points="261.88,-32 155.12,-32 155.12,0 261.88,0 261.88,-32"/>
<text xml:space="preserve" text-anchor="start" x="163.12" y="-18.5" font-family="Helvetica,sans-Serif" font-size="10.00">ch9120_uart_timeout</text>
<text xml:space="preserve" text-anchor="middle" x="208.5" y="-6.5" font-family="Helvetica,sans-Serif" font-size="10.00">_convert_to_register</text>
</a>
</g>
</g>
<!-- Node1&#45;&gt;Node20 -->
<g id="edge19_Node000001_Node000020" class="edge">
<title>Node1&#45;&gt;Node20</title>
<g id="a_edge19_Node000001_Node000020"><a xlink:title=" ">
<path fill="none" stroke="#63b8ff" d="M54.22,-377.67C52.47,-331.91 51.4,-145.08 143.5,-41 144.31,-40.08 145.16,-39.2 146.04,-38.35"/>
<polygon fill="#63b8ff" stroke="#63b8ff" points="147.85,-41.38 153.57,-32.46 143.53,-35.87 147.85,-41.38"/>
</a>
</g>
</g>
</g>
</svg>
